<svg width="22" height="20" viewBox="0 0 22 20" fill="none" xmlns="http://www.w3.org/2000/svg">
<path fill-rule="evenodd" clip-rule="evenodd" d="M6.875 1.375C6.875 0.960784 6.53923 0.625 6.125 0.625C5.71077 0.625 5.375 0.960784 5.375 1.375V2.5H2C1.17157 2.5 0.5 3.17158 0.5 4V17.875C0.5 18.7034 1.17157 19.375 2 19.375H20C20.8284 19.375 21.5 18.7034 21.5 17.875V4C21.5 3.17158 20.8284 2.5 20 2.5H16.625V1.375C16.625 0.960784 16.2892 0.625 15.875 0.625C15.4608 0.625 15.125 0.960784 15.125 1.375V2.5H6.875V1.375ZM15.125 4.75V4H6.875V4.75C6.875 5.16423 6.53923 5.5 6.125 5.5C5.71077 5.5 5.375 5.16423 5.375 4.75V4H2V6.625H20V4H16.625V4.75C16.625 5.16423 16.2892 5.5 15.875 5.5C15.4608 5.5 15.125 5.16423 15.125 4.75ZM20 8.125H2V17.875H20V8.125Z" fill="black" fill-opacity="0.25"/>
</svg>
