<svg width="24" height="24" viewBox="0 0 24 24" fill="none" xmlns="http://www.w3.org/2000/svg">
<path d="M23.2616 10.9704L20.5609 8.26962C20.0847 7.79351 19.4516 7.53129 18.7781 7.53129H16.4687V2.96252C16.4687 1.74429 15.4776 0.753113 14.2594 0.753113H2.20936C0.991125 0.753113 0 1.74429 0 2.96252V18.7782C0 19.9964 0.991125 20.9876 2.20936 20.9876H3.0975C3.41405 22.2827 4.58372 23.2469 5.97502 23.2469C7.36631 23.2469 8.53594 22.2827 8.85248 20.9876H15.1475C15.4641 22.2827 16.6337 23.2469 18.025 23.2469C19.4162 23.2469 20.586 22.2827 20.9025 20.9876H21.7906C23.0028 20.9876 24 20.0077 24 18.7782V12.7531C24 12.0797 23.7378 11.4465 23.2616 10.9704ZM5.97502 21.8407C5.11688 21.8407 4.41877 21.1425 4.41877 20.2844C4.41877 19.4263 5.11692 18.7282 5.97502 18.7282C6.83311 18.7282 7.53127 19.4263 7.53127 20.2844C7.53127 21.1425 6.83311 21.8407 5.97502 21.8407ZM15.0625 19.5813H8.85319C8.53673 18.286 7.36636 17.3219 5.97502 17.3219C4.58367 17.3219 3.41325 18.286 3.0968 19.5813H2.20936C1.76653 19.5813 1.40625 19.221 1.40625 18.7782V15.7157H15.0625V19.5813ZM15.0625 14.3094H1.40625V2.96252C1.40625 2.51969 1.76653 2.15936 2.20936 2.15936H14.2594C14.7022 2.15936 15.0625 2.51969 15.0625 2.96252V14.3094ZM18.025 21.8407C17.1668 21.8407 16.4687 21.1425 16.4687 20.2844C16.4687 19.4263 17.1668 18.7282 18.025 18.7282C18.8831 18.7282 19.5812 19.4263 19.5812 20.2844C19.5812 21.1425 18.8831 21.8407 18.025 21.8407ZM22.5938 18.7782C22.5938 19.2258 22.23 19.5813 21.7906 19.5813H20.9032C20.5868 18.2861 19.4163 17.3219 18.025 17.3219C17.4546 17.3219 16.9213 17.484 16.4687 17.7645V8.93754H18.075V15.0125C18.075 15.4009 18.3898 15.7157 18.7781 15.7157H22.5938V18.7782ZM22.5938 14.3094H19.4813V9.18696C19.5108 9.21101 19.5392 9.23674 19.5665 9.26402L22.2672 11.9647C22.4778 12.1753 22.5938 12.4553 22.5938 12.7531V14.3094Z" fill="black" fill-opacity="0.25"/>
</svg>
