<svg width="74" height="50" viewBox="0 0 74 50" fill="none" xmlns="http://www.w3.org/2000/svg">
<path fill-rule="evenodd" clip-rule="evenodd" d="M62.2836 14.7621C62.4527 14.3168 62.4672 14.1247 62.3623 12.6958C62.2545 11.1795 60.6981 11.1359 59.9258 10.4374C58.8483 9.52765 57.6386 8.78676 56.338 8.24015C54.9391 7.62899 55.2422 7.50385 54.7759 6.63076C54.3707 5.87409 51.1823 5.23383 51.1823 5.23383C51.6033 4.42447 51.9224 3.5662 52.1324 2.6786C52.281 1.86663 48.4572 4.51499 48.4572 4.51499C46.2239 4.0483 43.9358 3.8984 41.6606 4.06971C40.015 4.21749 38.3923 4.55641 36.8254 5.07958L39.2561 5.55687C39.2561 5.55687 37.216 5.40263 31.3258 7.28849C26.0709 8.96481 21.5155 12.5095 21.5155 12.5095L24.739 12.009C24.739 12.009 21.9993 13.0916 20.6732 14.4594C15.2872 10.0125 10.3588 13.5194 10.3588 13.5194C10.3588 13.5194 13.3083 12.7365 16.7707 14.602C19.2364 15.9349 19.8426 18.8889 19.8426 18.8889C19.8426 18.8889 24.1473 17.1427 27.5894 20.4022C30.6496 23.3125 29.3993 27.1163 29.3934 27.1192C29.3876 27.1221 32.3983 27.547 33.4941 29.9625C33.9125 30.9115 34.1193 31.9399 34.1002 32.9766C34.0811 34.0133 33.8365 35.0335 33.3834 35.9664C33.3834 35.9664 36.1901 34.4938 36.0851 31.2925C37.452 31.2925 44.1292 29.8694 45.5077 29.395C48.09 28.5161 50.101 28.129 51.5087 28.3066C52.3597 28.4113 52.9397 28.5219 52.8756 29.2379C52.794 30.1488 52.3422 31.3478 52.4064 33.1027C52.4501 34.3803 51.7768 33.7313 51.1123 34.1679C50.2963 34.7034 49.588 34.2552 48.9352 34.2726C47.7694 34.3047 47.0029 35.1661 46.895 37.4041C46.7173 40.6374 47.7315 39.8691 48.463 39.3948C49.7513 38.5566 48.8798 39.1241 50.0136 38.4926C50.8675 38.0182 53.1525 37.0054 53.7412 36.4117C54.0123 36.1381 54.1551 35.7336 54.429 34.9566C55.0639 32.9445 55.5528 30.8893 55.8921 28.8071C55.9591 28.3939 55.8484 26.7699 55.8921 26.4236C56.1165 24.8666 54.4523 24.5668 52.6162 24.5057C50.2846 24.4242 46.8455 24.4301 44.0243 24.4097C38.8656 24.3719 38.4371 22.1397 40.0343 20.0443C44.0097 14.8727 50.0456 14.148 50.0456 14.148C50.6534 14.6541 51.3294 15.0724 52.0537 15.3907C53.7849 16.0164 55.6823 15.2365 55.6823 15.2365C56.1923 15.0589 58.6609 15.2685 60.2901 15.7545C60.4859 15.8265 60.6943 15.8577 60.9026 15.8463C61.111 15.8349 61.3147 15.781 61.5014 15.6881C61.6881 15.5951 61.8538 15.4651 61.9884 15.3058C62.1229 15.1466 62.2233 14.9615 62.2836 14.7621ZM4.62016 8.76982C10.1635 1.47956 39.9818 0.286344 39.9818 0.286344C39.9818 0.286344 28.5074 -0.636216 16.4822 0.830568C1.63279 2.64076 -1.71306 6.80538 0.723463 11.392C3.19788 16.0484 8.62468 21.7002 8.62468 21.7002C8.62468 21.7002 1.9563 11.9799 4.62016 8.76982ZM27.7584 34.8256C29.3964 36.0683 29.4692 37.4187 29.4692 37.4187C29.4692 37.4187 30.2008 34.7994 28.8047 33.481C28.1174 32.8217 27.2372 32.3985 26.2924 32.2733C26.2924 32.2733 27.5835 29.4358 25.8057 26.6448C25.2615 25.814 24.5358 25.1172 23.6832 24.6066C22.8307 24.096 21.8733 23.7849 20.8831 23.6967C20.8822 23.2589 20.7906 22.8261 20.6141 22.4254C20.4375 22.0247 20.1798 21.6648 19.8572 21.3684C19.7803 22.1241 19.6389 22.8719 19.4346 23.6035C19.2184 24.307 18.9374 24.989 18.5952 25.6407C18.5952 25.6407 22.2733 25.7717 23.6606 27.969C25.5259 30.9287 23.4041 34.5549 23.4041 34.5549C23.4041 34.5549 25.7328 33.289 27.7584 34.8256ZM36.9216 45.7013C33.9138 45.5616 23.8996 39.5752 23.8996 39.5752L36.0239 49.6593C36.0239 49.6593 36.9362 50.3316 37.7056 49.7874C38.9851 48.8823 45.1318 42.7678 45.1318 42.7678C45.1318 42.7678 39.9294 45.841 36.9216 45.7013ZM71.6042 6.23497C66.1657 2.5098 58.4656 2.21877 58.4656 2.21877C58.4656 2.21877 69.2493 5.58015 69.36 9.91648C69.4795 14.2062 60.6224 25.7048 60.6224 25.7048C60.6224 25.7048 70.2169 16.2667 72.1026 13.2167C73.9883 10.1668 74.271 8.05098 71.6188 6.23497H71.6042Z" fill="black"/>
</svg>
