<svg width="24" height="24" viewBox="0 0 24 24" fill="none" xmlns="http://www.w3.org/2000/svg">
<path d="M6.82702 12.827H11.173V17.173C11.173 17.3923 11.2601 17.6027 11.4152 17.7578C11.5703 17.9129 11.7807 18 12 18C12.2193 18 12.4297 17.9129 12.5848 17.7578C12.7399 17.6027 12.827 17.3923 12.827 17.173V12.827H17.173C17.3923 12.827 17.6027 12.7399 17.7578 12.5848C17.9129 12.4297 18 12.2193 18 12C18 11.7807 17.9129 11.5703 17.7578 11.4152C17.6027 11.2601 17.3923 11.173 17.173 11.173H12.827V6.82702C12.827 6.60768 12.7399 6.39732 12.5848 6.24223C12.4297 6.08713 12.2193 6 12 6C11.7807 6 11.5703 6.08713 11.4152 6.24223C11.2601 6.39732 11.173 6.60768 11.173 6.82702V11.173H6.82702C6.60768 11.173 6.39732 11.2601 6.24223 11.4152C6.08713 11.5703 6 11.7807 6 12C6 12.2193 6.08713 12.4297 6.24223 12.5848C6.39732 12.7399 6.60768 12.827 6.82702 12.827Z" fill="black" fill-opacity="0.25"/>
<path d="M12 24C9.15867 24 6.40284 22.9892 4.24017 21.1537C3.73238 20.723 3.25603 20.2455 2.8245 19.7346C1.00298 17.5755 0 14.8288 0 12C0 8.79464 1.24819 5.78119 3.51469 3.51469C5.78119 1.24819 8.79464 0 12 0C15.2054 0 18.2188 1.24819 20.4853 3.51469C22.7518 5.78119 24 8.79464 24 12C24 14.8288 22.997 17.5755 21.1757 19.7343C20.744 20.2455 20.2676 20.723 19.7597 21.1538C17.5972 22.9892 14.8413 24 12 24ZM12 1.5C6.21028 1.5 1.5 6.21028 1.5 12C1.5 14.4752 2.37745 16.8785 3.97073 18.767C4.34855 19.2143 4.76578 19.6326 5.21063 20.01C7.10269 21.6157 9.5138 22.5 12 22.5C14.4862 22.5 16.8973 21.6157 18.7892 20.01C19.2342 19.6326 19.6515 19.2143 20.0295 18.7667C21.6225 16.8785 22.5 14.4753 22.5 12C22.5 6.21028 17.7897 1.5 12 1.5Z" fill="black" fill-opacity="0.25"/>
</svg>
