<svg width="24" height="24" viewBox="0 0 24 24" fill="none" xmlns="http://www.w3.org/2000/svg">
<path fill-rule="evenodd" clip-rule="evenodd" d="M4.23227 21.147C3.72743 20.7181 3.25379 20.2428 2.8245 19.7346C1.00298 17.5755 0 14.8288 0 12C0 8.79464 1.24819 5.78119 3.51469 3.51469C5.78119 1.24819 8.79464 0 12 0C15.2054 0 18.2188 1.24819 20.4853 3.51469C22.7518 5.78119 24 8.79464 24 12C24 14.8288 22.997 17.5755 21.1757 19.7343C20.7453 20.2439 20.2706 20.72 19.7645 21.1498C19.7617 21.1522 19.7589 21.1546 19.7561 21.1569C17.5941 22.9903 14.8397 24 12 24C9.16177 24 6.40885 22.9914 4.24725 21.1597C4.2422 21.1555 4.23721 21.1513 4.23227 21.147ZM3.75367 18.501C2.29795 16.6554 1.5 14.3604 1.5 12C1.5 6.21028 6.21028 1.5 12 1.5C17.7897 1.5 22.5 6.21028 22.5 12C22.5 14.3606 21.702 16.6556 20.2463 18.5009C20.1846 16.4105 19.347 14.4494 17.8719 12.9548C17.0005 12.0719 15.9635 11.4092 14.8302 10.9962C15.8482 10.1705 16.5 8.90994 16.5 7.5C16.5 5.01867 14.4813 3 12 3C9.51867 3 7.5 5.01867 7.5 7.5C7.5 8.90996 8.1518 10.1705 9.1699 10.9962C8.03655 11.4092 6.9995 12.0719 6.12806 12.9548C4.65299 14.4494 3.81537 16.4105 3.75367 18.501ZM12 12L11.9012 12.0005C8.23341 12.0532 5.25 15.0804 5.25 18.75C5.25 19.2274 5.3 19.7026 5.39877 20.1659C7.26119 21.6729 9.59548 22.5 12 22.5C14.4046 22.5 16.7389 21.6728 18.6012 20.1659C18.7 19.7026 18.75 19.2274 18.75 18.75C18.75 15.0804 15.7666 12.0532 12.0988 12.0005L12 12ZM12 10.5C13.6542 10.5 15 9.15422 15 7.5C15 5.84578 13.6542 4.5 12 4.5C10.3458 4.5 9 5.84578 9 7.5C9 9.15422 10.3458 10.5 12 10.5Z" fill="black" fill-opacity="0.25"/>
</svg>
