<svg width="48" height="48" viewBox="0 0 48 48" fill="none" xmlns="http://www.w3.org/2000/svg">
<path d="M23.5525 0.593629L0.9421 8.58369C0.37684 8.7717 0 9.3357 0 9.8997V38.0999C0 38.7109 0.37684 39.2279 0.9421 39.4159L23.5525 47.406C23.6938 47.453 23.8822 47.5 24.0236 47.5C24.1178 47.5 24.1649 47.5 24.2591 47.5H24.3062C24.3533 47.5 24.4004 47.453 24.4475 47.453L47.0579 39.4629C47.6232 39.2749 48 38.7109 48 38.1469V9.8997V9.8527C48 9.8057 48 9.7117 48 9.6647V9.6177C47.9058 9.1477 47.5761 8.72469 47.105 8.58369L35.7998 4.58866H35.7527C35.4701 4.49466 35.0932 4.44766 34.7635 4.58866L12.7184 12.3437C12.1531 12.5317 11.7763 13.0957 11.7763 13.6597V18.8298C11.7763 19.6288 12.3886 20.2398 13.1894 20.2398C13.9902 20.2398 14.6026 19.6288 14.6026 18.8298V14.6467L35.2345 7.36168L42.3945 9.8997L23.5525 16.5738C22.9872 16.7618 22.6104 17.2788 22.6104 17.8898C22.6104 17.8898 22.6104 17.8898 22.6104 17.9368V44.163L2.8263 37.1129V10.8867L24.4946 3.22565C25.2483 2.94365 25.6251 2.14464 25.3425 1.43964C25.107 0.68763 24.3062 0.311627 23.5525 0.593629ZM25.4367 18.8768L45.2208 11.8737V37.0659L25.4367 44.069V18.8768Z" fill="#FFC107"/>
</svg>
