<svg width="48" height="45" viewBox="0 0 48 45" fill="none" xmlns="http://www.w3.org/2000/svg">
<path d="M46.5232 20.4407L41.1217 15.0392C40.1693 14.087 38.9032 13.5626 37.5563 13.5626H32.9375V4.42504C32.9375 1.98857 30.9552 0.00622559 28.5188 0.00622559H4.41872C1.98225 0.00622559 0 1.98857 0 4.42504V36.0563C0 38.4928 1.98225 40.4751 4.41872 40.4751H6.195C6.82809 43.0653 9.16744 44.9939 11.95 44.9939C14.7326 44.9939 17.0719 43.0653 17.705 40.4751H30.295C30.9281 43.0653 33.2675 44.9939 36.05 44.9939C38.8325 44.9939 41.1719 43.0653 41.805 40.4751H43.5813C46.0057 40.4751 48 38.5154 48 36.0563V24.0062C48 22.6593 47.4756 21.3931 46.5232 20.4407ZM11.95 42.1814C10.2338 42.1814 8.83753 40.7851 8.83753 39.0689C8.83753 37.3527 10.2338 35.9564 11.95 35.9564C13.6662 35.9564 15.0625 37.3527 15.0625 39.0689C15.0625 40.7851 13.6662 42.1814 11.95 42.1814ZM30.125 37.6625H17.7064C17.0735 35.072 14.7327 33.1438 11.95 33.1438C9.16734 33.1438 6.8265 35.072 6.19359 37.6625H4.41872C3.53306 37.6625 2.8125 36.942 2.8125 36.0563V29.9313H30.125V37.6625ZM30.125 27.1188H2.8125V4.42504C2.8125 3.53938 3.53306 2.81873 4.41872 2.81873H28.5188C29.4044 2.81873 30.125 3.53938 30.125 4.42504V27.1188ZM36.05 42.1814C34.3337 42.1814 32.9375 40.7851 32.9375 39.0689C32.9375 37.3527 34.3337 35.9564 36.05 35.9564C37.7663 35.9564 39.1625 37.3527 39.1625 39.0689C39.1625 40.7851 37.7663 42.1814 36.05 42.1814ZM45.1875 36.0563C45.1875 36.9516 44.4601 37.6626 43.5813 37.6626H41.8064C41.1735 35.0721 38.8327 33.1439 36.05 33.1439C34.9092 33.1439 33.8425 33.4681 32.9375 34.029V16.3751H36.15V28.5251C36.15 29.3017 36.7796 29.9313 37.5563 29.9313H45.1875V36.0563ZM45.1875 27.1188H38.9625V16.8739C39.0216 16.922 39.0785 16.9735 39.133 17.028L44.5344 22.4295C44.9556 22.8506 45.1875 23.4106 45.1875 24.0062V27.1188Z" fill="#FFC107"/>
</svg>
