<svg width="992" height="217" viewBox="0 0 992 217" fill="none" xmlns="http://www.w3.org/2000/svg">
<path d="M-21.6037 120.631C45.3428 120.631 -0.0913236 75.2045 45.3428 75.2045C112.289 75.2045 45.3428 161.411 112.289 161.411C179.236 161.411 112.289 104.628 179.236 104.628C246.182 104.628 179.236 45.0062 246.182 45.0062C318.119 45.0062 246.182 164.767 318.119 164.767C380.075 164.767 318.119 113.662 380.075 113.662M380.075 113.662C301.03 113.662 373.105 68.2357 294.06 68.2357C219.249 68.2357 287.09 137.924 208.045 137.924C125.128 137.924 201.075 82.4314 122.03 82.4314C42.985 82.4314 115.06 30.8105 36.015 30.8105C-43.03 30.8105 29.045 5 -50 5M380.075 113.662C356.067 113.662 344.192 113.662 321.475 113.662C219.404 113.662 321.475 182.834 219.404 182.834C139.068 182.834 219.404 142.57 139.068 142.57C58.7321 142.57 139.068 212 58.7321 212C-21.6037 212 58.7321 182.834 -21.6037 182.834M380.075 113.662H428.607H557.423H1043" stroke="url(#paint0_linear_1528_7232)" stroke-opacity="0.05" stroke-width="9" stroke-linecap="round"/>
<path d="M-21.6037 120.631C45.3428 120.631 -0.0913236 75.2045 45.3428 75.2045C112.289 75.2045 45.3428 161.411 112.289 161.411C179.236 161.411 112.289 104.628 179.236 104.628C246.182 104.628 179.236 45.0062 246.182 45.0062C318.119 45.0062 246.182 164.767 318.119 164.767C380.075 164.767 318.119 113.662 380.075 113.662M380.075 113.662C301.03 113.662 373.105 68.2357 294.06 68.2357C219.249 68.2357 287.09 137.924 208.045 137.924C125.128 137.924 201.075 82.4314 122.03 82.4314C42.985 82.4314 115.06 30.8105 36.015 30.8105C-43.03 30.8105 29.045 5 -50 5M380.075 113.662C356.067 113.662 344.192 113.662 321.475 113.662C219.404 113.662 321.475 182.834 219.404 182.834C139.068 182.834 219.404 142.57 139.068 142.57C58.7321 142.57 139.068 212 58.7321 212C-21.6037 212 58.7321 182.834 -21.6037 182.834M380.075 113.662H428.607H557.423H1043" stroke="url(#paint1_linear_1528_7232)" stroke-width="9" stroke-linecap="round"/>
<defs>
<linearGradient id="paint0_linear_1528_7232" x1="477.01" y1="95.3367" x2="477.01" y2="226.454" gradientUnits="userSpaceOnUse">
<stop/>
<stop offset="1" stop-opacity="0"/>
</linearGradient>
<linearGradient id="paint1_linear_1528_7232" x1="602.599" y1="115.727" x2="392.983" y2="115.727" gradientUnits="userSpaceOnUse">
<stop stop-color="white" stop-opacity="0"/>
<stop offset="0.190625" stop-color="#FCFCFC"/>
<stop offset="0.788752" stop-color="#FCFCFC"/>
<stop offset="1" stop-color="white" stop-opacity="0"/>
</linearGradient>
</defs>
</svg>
